<?xml version="1.0" standalone="no"?><!DOCTYPE svg PUBLIC "-//W3C//DTD SVG 1.1//EN" "http://www.w3.org/Graphics/SVG/1.1/DTD/svg11.dtd"><svg t="1536823432541" class="icon" style="" viewBox="0 0 1024 1024" version="1.1" xmlns="http://www.w3.org/2000/svg" p-id="3059" xmlns:xlink="http://www.w3.org/1999/xlink" width="32" height="32"><defs><style type="text/css"></style></defs><path d="M719.48387094 47.48387094h-510.96774188c-43.35483844 0-77.41935469 34.06451625-77.41935468 77.41935469v774.19354875c0 43.35483844 34.06451625 77.41935469 77.41935468 77.41935468h603.8709675c43.35483844 0 77.41935469-34.06451625 77.41935469-77.41935468V217.80645125l-170.32258031-170.32258031z m15.48387093 548.1290325c0 18.58064531-20.1290325 29.41935469-35.61290343 20.1290325l-80.51612907-49.54838719v12.38709656c0 32.51612906-26.32258031 58.83870938-58.83870937 58.83870938H344.77419313c-32.51612906 0-58.83870938-26.32258031-58.83870938-58.83870938v-130.06451625c0-32.51612906 26.32258031-58.83870938 58.83870938-58.83870937h215.22580687c32.51612906 0 58.83870938 26.32258031 58.83870938 58.83870937v30.96774188l80.51612906-49.54838719c15.48387094-9.29032219 35.61290344 1.54838719 35.61290344 20.1290325v145.54838719z" fill="#8283F2" p-id="3060"></path><path d="M722.58064531 45.93548375h-3.09677437v123.8709675c0 15.48387094 7.74193594 49.54838719 54.19354875 49.54838719h119.22580594L722.58064531 45.93548375z" fill="#C1C1F9" p-id="3061"></path></svg>